<?xml version="1.0" encoding="utf-8"?>
<!-- Generator: Adobe Illustrator 18.0.0, SVG Export Plug-In . SVG Version: 6.00 Build 0)  -->
<!DOCTYPE svg PUBLIC "-//W3C//DTD SVG 1.1//EN" "http://www.w3.org/Graphics/SVG/1.1/DTD/svg11.dtd">
<svg version="1.1" xmlns="http://www.w3.org/2000/svg" xmlns:xlink="http://www.w3.org/1999/xlink" x="0px" y="0px"
	 viewBox="0 0 2343.2 2049.2" enable-background="new 0 0 2343.2 2049.2" xml:space="preserve">
<g id="レイヤー_1">
	<g>
		<path fill="#52BA65" d="M964.4,1112.7c87.9,0,165.7-43,213.8-109c25.7-37.5,47.4-83.3,45.3-146.9c-2.1-65.1-56-121.4-118.4-121.4
			c-62.5,0-113.1,50.6-113.1,113.1c0,51,33.8,94.2,80.2,108.3c-2.6,22.3-9.7,43.2-20.4,61.7c-44.3,76.8-142.5,103.1-219.3,58.8
			C874,1101.3,919.5,1112.7,964.4,1112.7"/>
		<path fill="#F58538" d="M735.7,716.5c-43.9,76.1-45.7,165-12.5,239.6c19.6,40.9,48.4,82.7,104.5,112.7
			c57.4,30.7,133.1,12.2,164.3-41.9c31.2-54.1,12.7-123.3-41.4-154.5c-44.2-25.5-98.4-17.8-133.9,15.3c-18-13.4-32.5-30-43.2-48.5
			c-44.3-76.8-18-175,58.8-219.3C790.8,644,758.1,677.7,735.7,716.5"/>
		<path fill="#525FAB" d="M1193.2,716.6c-43.9-76.1-120.1-122.1-201.3-130.6c-45.3-3.5-95.8,0.6-149.9,34.2
			c-55.3,34.4-77.1,109.2-45.9,163.2c31.2,54.1,100.4,72.6,154.5,41.4c44.2-25.5,64.7-76.3,53.6-123.6c20.6-8.9,42.2-13.2,63.6-13.2
			c88.7,0,160.6,71.9,160.6,160.6C1228.5,800.5,1215.7,755.4,1193.2,716.6"/>
	</g>
	<g>
		<path fill="none" d="M602.6,847c0,159.8,104.2,295.3,248.4,342.3v-5.8h225.6v4.6c142.4-48,245-182.6,245-341.1
			c0-159-103.2-293.9-246.2-341.6v4.1H849.7v-4.4C706.2,552.5,602.6,687.7,602.6,847z"/>
		<path fill="#AAA1A1" d="M601.7,847c0,160.1,104.6,295.9,249.3,342.6v-0.3c-144.2-47-248.4-182.5-248.4-342.3
			c0-159.3,103.6-294.5,247.1-341.9v-0.3C705.8,551.9,601.7,687.3,601.7,847z"/>
		<path fill="#AAA1A1" d="M1350.6,847c0-175.1-116-323.1-275.3-371.4v0.3c158.8,48.6,274.4,196.4,274.4,371.2
			c0,174.3-115,321.8-273.2,370.8v0.3C1235.2,1169.3,1350.6,1021.6,1350.6,847z"/>
		<path fill="#AAA1A1" d="M1321.5,847c0,158.5-102.6,293.2-245,341.1v0.3c142.8-47.7,245.9-182.6,245.9-341.4
			c0-159.3-103.6-294.5-247.1-341.9v0.3C1218.3,553.1,1321.5,688,1321.5,847z"/>
		<path fill="#AAA1A1" d="M574.4,847c0-175.1,116-323.1,275.3-371.4v-0.3C690,523.3,573.5,671.6,573.5,847
			c0,175.8,117,324.4,277.5,372.1v-0.3C691,1170.9,574.4,1022.5,574.4,847z"/>
		<path d="M1322.4,847c0,158.8-103,293.7-245.9,341.4v29.3c158.2-49,273.2-196.5,273.2-370.8c0-174.8-115.6-322.5-274.4-371.2v29.3
			C1218.8,552.5,1322.4,687.7,1322.4,847z"/>
		<path d="M574.4,847c0,175.5,116.6,323.9,276.6,371.8v-29.3c-144.6-46.7-249.3-182.4-249.3-342.6c0-159.7,104-295.1,248-342.2
			v-29.3C690.4,523.9,574.4,671.9,574.4,847z"/>
	</g>
	<g>
		<path d="M659,847c0-63.4,19.5-122.3,52.7-171l-20.3-20.3c-38.2,54.1-60.7,120-60.7,191.3c0,163.9,119,300.1,275.3,326.9v-28.7
			C765.5,1118.8,659,995.3,659,847z"/>
		<path d="M1294.2,847c0-71.2-22.5-137.2-60.7-191.2l-20.3,20.3c33.3,48.7,52.8,107.6,52.8,171c0,148.3-106.5,271.8-247.1,298.2
			v28.7C1175.2,1147.1,1294.2,1010.9,1294.2,847z"/>
		<path d="M962.5,543.5c63.4,0,122.3,19.5,171,52.8l20.3-20.3c-54.1-38.2-120-60.7-191.2-60.7c-71.2,0-137.2,22.5-191.3,60.7
			l20.3,20.3C840.2,563,899.1,543.5,962.5,543.5z"/>
	</g>
</g>
<g id="レイヤー_2" display="none">
	<path display="inline" fill="none" stroke="#DD265B" stroke-miterlimit="10" d="M1280.1,847c0,175.3-142.3,317.6-317.6,317.6
		c-175.4,0-317.6-142.3-317.6-317.6c0-175.4,142.2-317.6,317.6-317.6C1137.9,529.4,1280.1,671.6,1280.1,847z"/>
	<path id="E" display="inline" fill="none" stroke="#DD265B" stroke-width="3" stroke-miterlimit="10" d="M1280.1,847
		c0,175.3-142.3,317.6-317.6,317.6c-175.4,0-317.6-142.3-317.6-317.6c0-175.4,142.2-317.6,317.6-317.6
		C1137.9,529.4,1280.1,671.6,1280.1,847z"/>
	<path id="N" display="inline" opacity="0.55" fill="none" stroke="#E81F25" stroke-width="3" stroke-miterlimit="10" d="
		M1336.5,847c0,206.5-167.5,374-374,374c-206.5,0-374-167.5-374-374c0-206.5,167.5-374,374-374C1169,473,1336.5,640.5,1336.5,847z"
		/>
	<path display="inline" fill="none" stroke="#DD265B" stroke-miterlimit="10" d="M1336.5,847c0,206.5-167.5,374-374,374
		c-206.5,0-374-167.5-374-374c0-206.5,167.5-374,374-374C1169,473,1336.5,640.5,1336.5,847z"/>
	<path display="inline" fill="none" stroke="#DD265B" stroke-miterlimit="10" d="M1228.5,849c0,145.8-118.2,264-264,264
		c-145.8,0-264-118.2-264-264s118.2-264,264-264C1110.3,585,1228.5,703.2,1228.5,849z"/>
	<circle display="inline" fill="none" stroke="#DD265B" stroke-miterlimit="10" cx="894" cy="726.8" r="112.8"/>
	<circle display="inline" fill="none" stroke="#DD265B" stroke-miterlimit="10" cx="815.3" cy="630.5" r="112.8"/>
	<circle display="inline" fill="none" stroke="#DD265B" stroke-miterlimit="10" cx="745.5" cy="542.3" r="112.8"/>
</g>
</svg>
