<?xml version="1.0" encoding="utf-8"?>
<!-- Generator: Adobe Illustrator 18.0.0, SVG Export Plug-In . SVG Version: 6.00 Build 0)  -->
<!DOCTYPE svg PUBLIC "-//W3C//DTD SVG 1.1//EN" "http://www.w3.org/Graphics/SVG/1.1/DTD/svg11.dtd">
<svg version="1.1" xmlns="http://www.w3.org/2000/svg" xmlns:xlink="http://www.w3.org/1999/xlink" x="0px" y="0px"
	 viewBox="0 0 777.1 774.5" enable-background="new 0 0 777.1 774.5" xml:space="preserve">
<g id="レイヤー_1">
	<g>
		<path fill="#52BA65" d="M390.9,654.7c87.9,0,165.7-43,213.7-109c25.7-37.5,47.4-83.3,45.3-146.9c-2.1-65.1-56-121.4-118.4-121.4
			c-62.5,0-113.1,50.6-113.1,113.1c0,51,33.8,94.2,80.2,108.3c-2.6,22.3-9.7,43.2-20.4,61.7c-44.3,76.8-142.5,103.1-219.3,58.8
			C300.5,643.3,346,654.7,390.9,654.7"/>
		<path fill="#F58538" d="M162.2,258.5c-43.9,76.1-45.7,165-12.5,239.6c19.6,40.9,48.4,82.7,104.5,112.7
			c57.4,30.7,133.1,12.2,164.3-41.9c31.2-54.1,12.7-123.3-41.4-154.5c-44.2-25.5-98.4-17.8-133.9,15.3c-18-13.4-32.5-30-43.2-48.5
			c-44.3-76.8-18-175,58.8-219.3C217.2,185.9,184.6,219.6,162.2,258.5"/>
		<path fill="#525FAB" d="M619.7,258.6c-43.9-76.1-120.1-122.1-201.3-130.6c-45.3-3.5-95.8,0.6-149.9,34.2
			c-55.3,34.4-77.1,109.2-45.9,163.3c31.2,54.1,100.4,72.6,154.5,41.4c44.2-25.5,64.7-76.3,53.6-123.6c20.6-8.9,42.2-13.2,63.6-13.2
			c88.7,0,160.6,71.9,160.6,160.6C655,342.5,642.1,297.4,619.7,258.6"/>
	</g>
	<g>
		<path fill="none" d="M29.1,389c0,159.8,104.2,295.3,248.4,342.3v-5.8H503v4.6c142.4-48,245-182.6,245-341.1
			c0-159-103.2-293.9-246.2-341.6v4.1H276.2v-4.4C132.7,94.5,29.1,229.7,29.1,389z"/>
		<path fill="#AAA1A1" d="M28.2,389c0,160.1,104.6,295.9,249.3,342.6v-0.3C133.3,684.3,29.1,548.8,29.1,389
			c0-159.3,103.6-294.5,247.1-341.9v-0.3C132.2,93.9,28.2,229.3,28.2,389z"/>
		<path fill="#AAA1A1" d="M777.1,389c0-175.1-116-323.1-275.3-371.4v0.3C660.6,66.5,776.2,214.3,776.2,389
			c0,174.3-115,321.8-273.2,370.8v0.3C661.7,711.3,777.1,563.6,777.1,389z"/>
		<path fill="#AAA1A1" d="M748,389c0,158.5-102.6,293.2-245,341.1v0.3C645.9,682.7,748.9,547.9,748.9,389
			c0-159.3-103.6-294.5-247.1-341.9v0.3C644.8,95.1,748,230,748,389z"/>
		<path fill="#AAA1A1" d="M0.9,389c0-175.1,116-323.1,275.3-371.4v-0.3C116.4,65.3,0,213.6,0,389c0,175.8,117,324.4,277.5,372.1
			v-0.3C117.5,712.9,0.9,564.5,0.9,389z"/>
		<path fill="#8A59A5" d="M748.9,389c0,158.8-103,293.7-245.9,341.4v29.3c158.2-49,273.2-196.5,273.2-370.8
			c0-174.8-115.6-322.5-274.4-371.2v29.3C645.3,94.5,748.9,229.7,748.9,389z"/>
		<path fill="#8A59A5" d="M0.9,389c0,175.5,116.6,323.9,276.6,371.8v-29.3C132.8,684.9,28.2,549.1,28.2,389
			c0-159.7,104-295.1,248-342.2V17.6C116.9,65.9,0.9,213.9,0.9,389z"/>
	</g>
	<g>
		<path fill="#F58437" d="M85.5,389c0-63.4,19.5-122.3,52.7-171L118,197.7c-38.2,54.1-60.7,120-60.7,191.3
			c0,163.9,119,300.1,275.3,326.9v-28.7C192,660.8,85.5,537.3,85.5,389z"/>
		<path fill="#51B963" d="M720.7,389c0-71.2-22.5-137.2-60.7-191.2L639.7,218c33.3,48.7,52.8,107.6,52.8,171
			c0,148.3-106.5,271.8-247.1,298.2v28.7C601.7,689.1,720.7,552.9,720.7,389z"/>
		<path fill="#525FAB" d="M389,85.5c63.4,0,122.3,19.5,171,52.8l20.3-20.3c-54.1-38.2-120-60.7-191.2-60.7
			c-71.2,0-137.2,22.5-191.3,60.7l20.3,20.3C266.7,105,325.6,85.5,389,85.5z"/>
	</g>
</g>
<g id="レイヤー_2" display="none">
	<path display="inline" fill="none" stroke="#DD265B" stroke-miterlimit="10" d="M706.6,389c0,175.3-142.3,317.6-317.6,317.6
		C213.6,706.6,71.4,564.3,71.4,389C71.4,213.6,213.6,71.4,389,71.4C564.3,71.4,706.6,213.6,706.6,389z"/>
	<path id="E" display="inline" fill="none" stroke="#DD265B" stroke-width="3" stroke-miterlimit="10" d="M706.6,389
		c0,175.3-142.3,317.6-317.6,317.6C213.6,706.6,71.4,564.3,71.4,389C71.4,213.6,213.6,71.4,389,71.4
		C564.3,71.4,706.6,213.6,706.6,389z"/>
	<path id="N" display="inline" opacity="0.55" fill="none" stroke="#E81F25" stroke-width="3" stroke-miterlimit="10" d="M763,389
		c0,206.5-167.5,374-374,374C182.5,763,15,595.5,15,389C15,182.5,182.5,15,389,15C595.5,15,763,182.5,763,389z"/>
	<path display="inline" fill="none" stroke="#DD265B" stroke-miterlimit="10" d="M763,389c0,206.5-167.5,374-374,374
		C182.5,763,15,595.5,15,389C15,182.5,182.5,15,389,15C595.5,15,763,182.5,763,389z"/>
	<path display="inline" fill="none" stroke="#DD265B" stroke-miterlimit="10" d="M655,391c0,145.8-118.2,264-264,264
		c-145.8,0-264-118.2-264-264s118.2-264,264-264C536.8,127,655,245.2,655,391z"/>
	<circle display="inline" fill="none" stroke="#DD265B" stroke-miterlimit="10" cx="320.5" cy="268.8" r="112.8"/>
	<circle display="inline" fill="none" stroke="#DD265B" stroke-miterlimit="10" cx="241.7" cy="172.5" r="112.8"/>
	<circle display="inline" fill="none" stroke="#DD265B" stroke-miterlimit="10" cx="172" cy="84.3" r="112.8"/>
</g>
</svg>
