<?xml version="1.0" encoding="utf-8"?>
<!-- Generator: Adobe Illustrator 18.0.0, SVG Export Plug-In . SVG Version: 6.00 Build 0)  -->
<!DOCTYPE svg PUBLIC "-//W3C//DTD SVG 1.1//EN" "http://www.w3.org/Graphics/SVG/1.1/DTD/svg11.dtd">
<svg version="1.1" xmlns="http://www.w3.org/2000/svg" xmlns:xlink="http://www.w3.org/1999/xlink" x="0px" y="0px"
	 viewBox="0 0 663.4 664" enable-background="new 0 0 663.4 664" xml:space="preserve">
<g id="レイヤー_1">
	<g>
		<path fill="#4BB358" d="M333.6,597.4c87.9,0,165.7-43,213.8-109c25.7-37.5,47.4-83.3,45.3-146.9c-2.1-65.1-56-121.4-118.4-121.4
			c-62.5,0-113.1,50.6-113.1,113.1c0,51,33.8,94.2,80.2,108.3c-2.6,22.3-9.7,43.2-20.4,61.7C376.6,580,278.4,606.3,201.6,562
			C243.2,586,288.7,597.4,333.6,597.4"/>
		<path fill="#F08626" d="M104.9,201.2c-43.9,76.1-45.7,165-12.5,239.6c19.6,40.9,48.4,82.7,104.5,112.7
			c57.4,30.7,133.1,12.2,164.3-41.9c31.2-54.1,12.7-123.3-41.4-154.5c-44.2-25.5-98.4-17.8-133.9,15.3c-18-13.4-32.5-30-43.2-48.5
			c-44.3-76.8-18-175,58.8-219.3C159.9,128.6,127.3,162.3,104.9,201.2"/>
		<path fill="#4F54A3" d="M562.4,201.3C518.4,125.2,442.3,79.2,361.1,70.6c-45.3-3.5-95.8,0.6-149.9,34.2
			c-55.3,34.4-77.1,109.2-45.9,163.2c31.2,54.1,100.4,72.6,154.5,41.4c44.2-25.5,64.7-76.3,53.6-123.6c20.6-8.9,42.2-13.2,63.6-13.2
			c88.7,0,160.6,71.9,160.6,160.6C597.7,285.2,584.8,240.1,562.4,201.3"/>
	</g>
	<g>
		<path fill="#F08525" d="M28.2,331.7c0-63.4,19.5-122.3,52.7-171l-20.3-20.3C22.5,194.5,0,260.5,0,331.7
			c0,163.9,119,300.1,275.3,326.9v-28.7C134.7,603.5,28.2,480,28.2,331.7z"/>
		<path fill="#49B357" d="M663.4,331.7c0-71.2-22.5-137.2-60.7-191.2l-20.3,20.3c33.3,48.7,52.8,107.6,52.8,171
			c0,148.3-106.5,271.8-247.1,298.2v28.7C544.4,631.8,663.4,495.6,663.4,331.7z"/>
		<path fill="#4E54A3" d="M331.7,28.2c63.4,0,122.3,19.5,171,52.8l20.3-20.3C468.9,22.5,402.9,0,331.7,0
			c-71.2,0-137.2,22.5-191.3,60.7l20.3,20.3C209.4,47.7,268.3,28.2,331.7,28.2z"/>
	</g>
</g>
<g id="レイヤー_2" display="none">
	<path display="inline" fill="none" stroke="#DB124F" stroke-miterlimit="10" d="M649.3,331.7c0,175.3-142.3,317.6-317.6,317.6
		C156.3,649.3,14.1,507,14.1,331.7c0-175.4,142.2-317.6,317.6-317.6C507,14.1,649.3,156.3,649.3,331.7z"/>
	<path id="E" display="inline" fill="none" stroke="#DB124F" stroke-width="3" stroke-miterlimit="10" d="M649.3,331.7
		c0,175.3-142.3,317.6-317.6,317.6C156.3,649.3,14.1,507,14.1,331.7c0-175.4,142.2-317.6,317.6-317.6
		C507,14.1,649.3,156.3,649.3,331.7z"/>
	<path id="N" display="inline" opacity="0.55" fill="none" stroke="#E40313" stroke-width="3" stroke-miterlimit="10" d="
		M705.7,331.7c0,206.5-167.5,374-374,374c-206.5,0-374-167.5-374-374c0-206.5,167.5-374,374-374C538.2-42.3,705.7,125.2,705.7,331.7
		z"/>
	<path display="inline" fill="none" stroke="#DB124F" stroke-miterlimit="10" d="M705.7,331.7c0,206.5-167.5,374-374,374
		c-206.5,0-374-167.5-374-374c0-206.5,167.5-374,374-374C538.2-42.3,705.7,125.2,705.7,331.7z"/>
	<path display="inline" fill="none" stroke="#DB124F" stroke-miterlimit="10" d="M597.7,333.7c0,145.8-118.2,264-264,264
		c-145.8,0-264-118.2-264-264s118.2-264,264-264C479.5,69.7,597.7,187.9,597.7,333.7z"/>
	<circle display="inline" fill="none" stroke="#DB124F" stroke-miterlimit="10" cx="263.2" cy="211.5" r="112.8"/>
	<circle display="inline" fill="none" stroke="#DB124F" stroke-miterlimit="10" cx="184.4" cy="115.2" r="112.8"/>
	<circle display="inline" fill="none" stroke="#DB124F" stroke-miterlimit="10" cx="114.7" cy="27" r="112.8"/>
</g>
</svg>
